<svg width="16" height="16" viewBox="0 0 16 16" fill="none" xmlns="http://www.w3.org/2000/svg">
<path fill-rule="evenodd" clip-rule="evenodd" d="M8.00011 12.3635C10.4101 12.3635 12.3637 10.4098 12.3637 7.99987C12.3637 5.5899 10.4101 3.63623 8.00011 3.63623C5.59014 3.63623 3.63647 5.5899 3.63647 7.99987C3.63647 10.4098 5.59014 12.3635 8.00011 12.3635ZM8.00011 10.909C9.60673 10.909 10.9092 9.60649 10.9092 7.99987C10.9092 6.39322 9.60673 5.09078 8.00011 5.09078C6.39346 5.09078 5.09102 6.39322 5.09102 7.99987C5.09102 9.60649 6.39346 10.909 8.00011 10.909Z" fill="#F7F7F7"/>
<path d="M12.3637 2.90918C11.9621 2.90918 11.6365 3.23479 11.6365 3.63645C11.6365 4.03811 11.9621 4.36372 12.3637 4.36372C12.7654 4.36372 13.091 4.03811 13.091 3.63645C13.091 3.23479 12.7654 2.90918 12.3637 2.90918Z" fill="#F7F7F7"/>
<path fill-rule="evenodd" clip-rule="evenodd" d="M0.475607 2.38259C0 3.31602 0 4.53796 0 6.98182V9.01818C0 11.462 0 12.684 0.475607 13.6174C0.893964 14.4385 1.56151 15.106 2.38259 15.5244C3.31602 16 4.53796 16 6.98182 16H9.01818C11.462 16 12.684 16 13.6174 15.5244C14.4385 15.106 15.106 14.4385 15.5244 13.6174C16 12.684 16 11.462 16 9.01818V6.98182C16 4.53796 16 3.31602 15.5244 2.38259C15.106 1.56151 14.4385 0.893964 13.6174 0.475607C12.684 0 11.462 0 9.01818 0H6.98182C4.53796 0 3.31602 0 2.38259 0.475607C1.56151 0.893964 0.893964 1.56151 0.475607 2.38259ZM9.01818 1.45455H6.98182C5.73588 1.45455 4.88891 1.45568 4.23424 1.50916C3.59654 1.56127 3.27043 1.6557 3.04294 1.77161C2.49556 2.05052 2.05052 2.49556 1.77161 3.04294C1.6557 3.27043 1.56127 3.59654 1.50916 4.23424C1.45568 4.88891 1.45455 5.73588 1.45455 6.98182V9.01818C1.45455 10.2641 1.45568 11.1111 1.50916 11.7657C1.56127 12.4035 1.6557 12.7296 1.77161 12.9571C2.05052 13.5044 2.49556 13.9495 3.04294 14.2284C3.27043 14.3443 3.59654 14.4388 4.23424 14.4908C4.88891 14.5443 5.73588 14.5455 6.98182 14.5455H9.01818C10.2641 14.5455 11.1111 14.5443 11.7657 14.4908C12.4035 14.4388 12.7296 14.3443 12.9571 14.2284C13.5044 13.9495 13.9495 13.5044 14.2284 12.9571C14.3443 12.7296 14.4388 12.4035 14.4908 11.7657C14.5443 11.1111 14.5455 10.2641 14.5455 9.01818V6.98182C14.5455 5.73588 14.5443 4.88891 14.4908 4.23424C14.4388 3.59654 14.3443 3.27043 14.2284 3.04294C13.9495 2.49556 13.5044 2.05052 12.9571 1.77161C12.7296 1.6557 12.4035 1.56127 11.7657 1.50916C11.1111 1.45568 10.2641 1.45455 9.01818 1.45455Z" fill="#F7F7F7"/>
</svg>
