<svg width="11" height="14" viewBox="0 0 11 14" fill="none" xmlns="http://www.w3.org/2000/svg">
<path fill-rule="evenodd" clip-rule="evenodd" d="M5.25 3.9375C4.52506 3.9375 3.9375 4.52506 3.9375 5.25C3.9375 5.97494 4.52506 6.5625 5.25 6.5625C5.97494 6.5625 6.5625 5.97494 6.5625 5.25C6.5625 4.52506 5.97494 3.9375 5.25 3.9375ZM5.25 7.4375C4.04206 7.4375 3.0625 6.45837 3.0625 5.25C3.0625 4.04162 4.04206 3.0625 5.25 3.0625C6.45794 3.0625 7.4375 4.04162 7.4375 5.25C7.4375 6.45837 6.45794 7.4375 5.25 7.4375ZM5.25 0C2.35069 0 0 2.35069 0 5.25C0 7.44537 4.37719 14.0048 5.25 14C6.10925 14.0048 10.5 7.41562 10.5 5.25C10.5 2.35069 8.14931 0 5.25 0Z" fill="#F7F7F7"/>
</svg>
