<svg width="13" height="14" viewBox="0 0 13 14" fill="none" xmlns="http://www.w3.org/2000/svg">
<path d="M8.94279 8.71392L8.61838 9.03641C8.61838 9.03641 7.84733 9.80312 5.74271 7.7104C3.63811 5.61776 4.40915 4.85109 4.40915 4.85109L4.61341 4.64797C5.11667 4.14761 5.1641 3.34427 4.72502 2.75781L3.82695 1.55814C3.28354 0.832274 2.2335 0.736388 1.61065 1.35569L0.492749 2.46725C0.183916 2.77433 -0.0230416 3.1724 0.00205704 3.61399C0.0662638 4.74372 0.577404 7.17445 3.4296 10.0104C6.45422 13.0179 9.29221 13.1374 10.4528 13.0292C10.8199 12.995 11.1391 12.8081 11.3963 12.5522L12.4081 11.5463C13.0911 10.8672 12.8985 9.70298 12.0246 9.228L10.6639 8.48829C10.0902 8.1764 9.39121 8.268 8.94279 8.71392Z" fill="#F7F7F7"/>
</svg>
