<svg width="23" height="16" viewBox="0 0 23 16" fill="none" xmlns="http://www.w3.org/2000/svg">
<path fill-rule="evenodd" clip-rule="evenodd" d="M9.27252 10.9556V4.54205C11.5493 5.6134 13.3127 6.64835 15.3983 7.76415C13.6781 8.7181 11.5493 9.78847 9.27252 10.9556ZM21.9612 1.35232C21.5684 0.834884 20.899 0.432101 20.1864 0.298753C18.0917 -0.0990184 5.02401 -0.10015 2.93048 0.298753C2.35901 0.405884 1.85012 0.664836 1.41298 1.06717C-0.428959 2.77677 0.148216 11.9448 0.592194 13.4299C0.778891 14.0727 1.02024 14.5363 1.3242 14.8406C1.71581 15.2429 2.25199 15.5199 2.86786 15.6442C4.59254 16.0009 13.4778 16.2004 20.15 15.6977C20.7647 15.5906 21.3088 15.3047 21.738 14.8852C23.4411 13.1825 23.325 3.49958 21.9612 1.35232Z" fill="#F7F7F7"/>
</svg>
